<svg width="32" height="32" viewBox="0 0 32 32" fill="none" xmlns="http://www.w3.org/2000/svg">
<path d="M0 16C0 7.16344 7.16344 0 16 0C24.8366 0 32 7.16344 32 16C32 24.8366 24.8366 32 16 32C7.16344 32 0 24.8366 0 16Z" fill="#F3F3F3"/>
<g clip-path="url(#clip0_371_727)">
<path d="M19.5742 17.3498L20.0008 14.599H17.3335V12.8139C17.3335 12.0613 17.7061 11.3277 18.9007 11.3277H20.1133V8.98565C20.1133 8.98565 19.0129 8.7998 17.9608 8.7998C15.7642 8.7998 14.3284 10.1173 14.3284 12.5024V14.599H11.8867V17.3498H14.3284V23.9998H17.3335V17.3498H19.5742Z" fill="black"/>
</g>
<defs>
<clipPath id="clip0_371_727">
<rect width="9.6" height="15.2" fill="white" transform="translate(11.1992 8.7998)"/>
</clipPath>
</defs>
</svg>
