<svg width="32" height="32" viewBox="0 0 32 32" fill="none" xmlns="http://www.w3.org/2000/svg">
<path d="M0 16C0 7.16344 7.16344 0 16 0V0C24.8366 0 32 7.16344 32 16V16C32 24.8366 24.8366 32 16 32V32C7.16344 32 0 24.8366 0 16V16Z" fill="#F3F3F3"/>
<g clip-path="url(#clip0_371_825)">
<path d="M11.9481 22.0008H9.03303V12.6539H11.9481V22.0008ZM10.489 11.3789C9.55685 11.3789 8.80078 10.6102 8.80078 9.68204C8.80078 9.23622 8.97865 8.80867 9.29525 8.49343C9.61185 8.1782 10.0413 8.0011 10.489 8.0011C10.9367 8.0011 11.3661 8.1782 11.6827 8.49343C11.9993 8.80867 12.1772 9.23622 12.1772 9.68204C12.1772 10.6102 11.4208 11.3789 10.489 11.3789ZM22.8582 22.0008H19.9495V17.4508C19.9495 16.3664 19.9275 14.9758 18.4339 14.9758C16.9183 14.9758 16.686 16.1539 16.686 17.3727V22.0008H13.7741V12.6539H16.5699V13.9289H16.6107C16.9999 13.1945 17.9505 12.4195 19.3688 12.4195C22.319 12.4195 22.8614 14.3539 22.8614 16.8664V22.0008H22.8582Z" fill="black"/>
</g>
<defs>
<clipPath id="clip0_371_825">
<rect width="14.0606" height="16" fill="white" transform="translate(8.80078 8)"/>
</clipPath>
</defs>
</svg>
