<svg width="32" height="32" viewBox="0 0 32 32" fill="none" xmlns="http://www.w3.org/2000/svg">
<path d="M0 16C0 7.16344 7.16344 0 16 0V0C24.8366 0 32 7.16344 32 16V16C32 24.8366 24.8366 32 16 32V32C7.16344 32 0 24.8366 0 16V16Z" fill="#F3F3F3"/>
<g clip-path="url(#clip0_349_250)">
<path d="M11.9481 22.0007H9.03303V12.6538H11.9481V22.0007ZM10.489 11.3788C9.55685 11.3788 8.80078 10.61 8.80078 9.68191C8.80078 9.2361 8.97865 8.80855 9.29525 8.49331C9.61185 8.17807 10.0413 8.00098 10.489 8.00098C10.9367 8.00098 11.3661 8.17807 11.6827 8.49331C11.9993 8.80855 12.1772 9.2361 12.1772 9.68191C12.1772 10.61 11.4208 11.3788 10.489 11.3788ZM22.8582 22.0007H19.9495V17.4507C19.9495 16.3663 19.9275 14.9757 18.4339 14.9757C16.9183 14.9757 16.686 16.1538 16.686 17.3725V22.0007H13.7741V12.6538H16.5699V13.9288H16.6107C16.9999 13.1944 17.9505 12.4194 19.3688 12.4194C22.319 12.4194 22.8614 14.3538 22.8614 16.8663V22.0007H22.8582Z" fill="black"/>
</g>
<defs>
<clipPath id="clip0_349_250">
<rect width="14.0606" height="16" fill="white" transform="translate(8.80078 8)"/>
</clipPath>
</defs>
</svg>
