<svg width="290" height="290" viewBox="0 0 290 290" fill="none" xmlns="http://www.w3.org/2000/svg">
<mask id="mask0_349_468" style="mask-type:alpha" maskUnits="userSpaceOnUse" x="0" y="0" width="290" height="290">
<path d="M290 210.007C290 221.264 288.705 231.043 286.114 239.345C283.523 247.647 279.883 254.823 275.195 260.873C270.63 266.783 265.078 271.638 258.539 275.437C252.123 279.095 244.967 282.05 237.071 284.301C229.298 286.412 220.97 287.889 212.087 288.734C203.204 289.578 194.012 290 184.512 290H40C17.9086 290 0 272.091 0 250V40C0 17.9086 17.9086 0 40 0H181.181C188.46 0 195.739 0.351771 203.019 1.05531C210.421 1.75885 217.454 3.09558 224.116 5.0655C230.779 6.89471 236.947 9.49782 242.623 12.8748C248.422 16.2518 253.418 20.6841 257.613 26.1718C261.932 31.6594 265.263 38.2727 267.607 46.0116C270.074 53.7506 271.308 62.8967 271.308 73.4498C271.308 92.3047 267.237 107.29 259.094 118.406C256.554 121.83 253.557 124.897 250.105 127.609C245.87 130.935 247.222 144.963 252.246 146.9V146.9C261.13 150.136 268.347 154.639 273.899 160.408C279.451 166.036 283.523 173.001 286.114 181.303C288.705 189.464 290 199.032 290 210.007Z" fill="#262626"/>
</mask>
<g mask="url(#mask0_349_468)">
<path d="M290 210.007C290 221.264 288.705 231.043 286.114 239.345C283.523 247.647 279.883 254.823 275.195 260.873C270.63 266.783 265.078 271.638 258.539 275.437C252.123 279.095 244.967 282.05 237.071 284.301C229.298 286.412 220.97 287.889 212.087 288.734C203.204 289.578 194.012 290 184.512 290H0V0H181.181C188.46 0 195.739 0.351771 203.019 1.05531C210.421 1.75885 217.454 3.09558 224.116 5.0655C230.779 6.89471 236.947 9.49782 242.623 12.8748C248.422 16.2518 253.418 20.6841 257.613 26.1718C261.932 31.6594 265.263 38.2727 267.607 46.0116C270.074 53.7506 271.308 62.8967 271.308 73.4498C271.308 92.3047 267.237 107.29 259.094 118.406C250.951 129.381 238.12 136.698 220.6 140.357C232.938 141.342 243.486 143.523 252.246 146.9C261.13 150.136 268.347 154.639 273.899 160.408C279.451 166.036 283.523 173.001 286.114 181.303C288.705 189.464 290 199.032 290 210.007Z" fill="white"/>
<path d="M290 210.007C290 221.264 288.705 231.043 286.114 239.345C283.523 247.647 279.883 254.823 275.195 260.873C270.63 266.783 265.078 271.638 258.539 275.437C252.123 279.095 244.967 282.05 237.071 284.301C229.298 286.412 220.97 287.889 212.087 288.734C203.204 289.578 194.012 290 184.512 290H0V0H181.181C188.46 0 195.739 0.351771 203.019 1.05531C210.421 1.75885 217.454 3.09558 224.116 5.0655C230.779 6.89471 236.947 9.49782 242.623 12.8748C248.422 16.2518 253.418 20.6841 257.613 26.1718C261.932 31.6594 265.263 38.2727 267.607 46.0116C270.074 53.7506 271.308 62.8967 271.308 73.4498C271.308 92.3047 267.237 107.29 259.094 118.406C250.951 129.381 238.12 136.698 220.6 140.357C232.938 141.342 243.486 143.523 252.246 146.9C261.13 150.136 268.347 154.639 273.899 160.408C279.451 166.036 283.523 173.001 286.114 181.303C288.705 189.464 290 199.032 290 210.007ZM204.314 85.9025C204.314 82.2441 203.82 78.7967 202.833 75.5604C201.846 72.1834 200.057 69.2285 197.466 66.6958C194.876 64.163 191.359 62.1228 186.918 60.575C182.476 59.0272 176.801 58.2533 169.892 58.2533H68.6599V112.707H169.892C176.801 112.707 182.476 112.004 186.918 110.597C191.359 109.19 194.876 107.29 197.466 104.898C200.057 102.506 201.846 99.6919 202.833 96.4556C203.82 93.0786 204.314 89.5609 204.314 85.9025ZM220.23 200.932C220.23 194.318 219.243 189.042 217.269 185.102C215.295 181.021 212.21 177.926 208.015 175.815C203.82 173.564 198.392 172.086 191.729 171.383C185.067 170.679 177.109 170.328 167.856 170.328H68.6599V231.747H167.856C177.109 231.747 185.067 231.395 191.729 230.691C198.392 229.988 203.82 228.51 208.015 226.259C212.21 224.008 215.295 220.912 217.269 216.972C219.243 212.892 220.23 207.545 220.23 200.932Z" fill="white"/>
<mask id="mask1_349_468" style="mask-type:alpha" maskUnits="userSpaceOnUse" x="-196" y="-117" width="421" height="430">
<path d="M185.665 48.9412C188.203 61.096 193.996 76.0002 196.576 81.9329C196.576 89.8914 193.404 93.6536 189.598 97.5605C185.792 101.467 174.374 103.348 170.695 114.056C167.752 122.623 171.922 134.314 174.374 139.089C181.276 142.562 185.116 148.543 186.173 151.1C189.319 157.929 189.768 168.608 189.598 173.094C195.282 188.259 194.335 210.282 193.151 219.398C192.22 220.7 190.588 223.45 191.501 224.028C192.415 224.607 193.996 226.971 194.673 228.08L202.158 233.145C211.597 245.994 220.3 291.073 223.472 312.006H-194.684C-193.838 303.179 -191.74 282.285 -190.116 269.32C-188.086 253.113 -177.049 221.569 -175.019 215.925C-172.989 210.282 -145.713 154.283 -142.668 146.324C-140.232 139.958 -129.558 112.995 -124.526 100.31C-116.237 71.4662 -96.3358 8.80138 -83.0401 -11.1094C-66.4204 -35.9978 -81.0102 -25.7241 -17.8302 -83.17C45.3499 -140.616 109.291 -109.94 115.127 -92.8649C119.796 -79.2052 133.311 -55.6288 139.486 -45.548C174.247 -2.71673 182.494 33.7477 185.665 48.9412Z" fill="#C4C4C4" stroke="black" stroke-dasharray="2 4 6 8"/>
</mask>
<g mask="url(#mask1_349_468)">
<path d="M185.666 48.9412C188.203 61.096 193.997 76.0002 196.576 81.9329C196.576 89.8914 193.404 93.6536 189.598 97.5605C185.792 101.467 174.374 103.348 170.695 114.056C167.752 122.623 171.922 134.314 174.374 139.089C181.276 142.562 185.116 148.543 186.173 151.1C189.319 157.929 189.768 168.608 189.598 173.094C195.282 188.259 194.335 210.282 193.151 219.398C192.22 220.7 190.588 223.45 191.501 224.028C192.415 224.607 193.997 226.971 194.673 228.08C161.169 256.674 144.18 257.709 133.777 265.234L133.89 265.388C143.292 278.187 152.819 291.156 155.979 312.006H-194.684C-193.838 303.179 -191.74 282.285 -190.116 269.32C-188.086 253.113 -177.049 221.569 -175.019 215.925C-172.989 210.282 -145.713 154.283 -142.668 146.324C-140.232 139.958 -129.558 112.995 -124.526 100.31C-116.237 71.4662 -96.3358 8.80138 -83.0401 -11.1094C-66.4204 -35.9978 -81.0102 -25.7241 -17.8301 -83.17C45.3499 -140.616 109.291 -109.94 115.127 -92.8649C119.796 -79.2052 133.311 -55.6288 139.486 -45.548C174.247 -2.71673 182.494 33.7477 185.666 48.9412Z" fill="#1A2332"/>
<path d="M185.663 48.9409C188.201 61.0957 193.994 75.9999 196.574 81.9326C196.574 89.8911 193.402 93.6533 189.596 97.5602C185.79 101.467 174.372 103.348 170.693 114.056C167.75 122.622 171.919 134.314 174.372 139.089C181.274 142.562 185.114 148.543 186.171 151.099C189.317 157.929 189.765 168.608 189.596 173.094C195.28 188.258 194.333 210.282 193.149 219.398C192.218 220.7 190.586 223.449 191.499 224.028C192.413 224.607 193.994 226.97 194.671 228.08C194.671 228.08 195.178 230.974 194.164 232.999C193.149 235.025 191.499 235.025 191.499 235.025C177.924 241.103 183.507 247.614 150.014 260.927L108.528 273.516C85.9453 273.516 65.6468 247.614 57.6539 228.08C45.5414 198.477 30.3966 179.585 10.967 158.19C0.817596 147.013 -26.5862 131.241 -39.907 127.658C-62.6496 121.54 -124.528 136.306 -148.379 159.024C-148.379 159.024 -127.008 106.561 -124.528 100.309C-116.239 71.4659 -96.3378 8.8011 -83.0421 -11.1096C-66.4224 -35.9981 -81.0122 -25.7243 -17.8322 -83.1703C45.3479 -140.616 109.289 -109.94 115.125 -92.8652C119.794 -79.2055 133.309 -55.629 139.484 -45.5482C174.245 -2.71701 182.492 33.7474 185.663 48.9409Z" fill="#4D6194"/>
<path d="M159.529 64.7323C167.04 64.9638 187.186 67.0476 189.977 85.2798C189.977 85.2798 190.977 83.4096 192.642 81.5176C197.222 76.312 205.075 86.0033 205.075 86.0033L196.701 221.877C196.127 222.073 191.768 221.965 191.5 223.849C192.895 225.151 193.334 225.889 194.418 227.466C194.617 227.756 194.78 228.222 194.798 228.388C195.433 234.032 192.642 235.479 191.627 235.334C190.612 235.189 188.075 227.52 159.91 230.414C131.745 233.308 125.021 220.719 122.23 214.208C119.439 207.696 118.932 183.676 118.932 173.836C118.932 163.997 131.249 136.947 132.633 126.953C135.044 109.555 125.417 102.436 130.477 81.5176C134.536 64.7324 150.141 64.4429 159.529 64.7323Z" fill="#F8BA35"/>
<path d="M175.772 79.0382C181.456 82.3952 179.578 87.7201 179.578 90.6141C179.578 93.5081 182.071 93.4306 183.638 92.6057C185.287 91.7375 188.205 89.8564 188.205 89.8564C188.205 89.8564 188.205 91.014 187.951 92.0269C187.697 93.0398 188.332 93.908 189.474 93.6186C190.615 93.3292 192.645 92.1716 193.914 90.8693C195.183 89.567 196.452 85.839 196.452 85.839L197.213 104.361L175.772 114.779C175.772 114.779 173.108 105.952 162.958 110.004C152.809 114.056 141.137 103.348 138.854 96.8362C129.824 71.0897 168.667 74.8419 175.772 79.0382Z" fill="#1A2332"/>
<path d="M152.839 102.284C149.027 102.963 143.872 95.8473 143.978 90.8345C149.997 83.8121 156.741 85.873 159.36 87.7813C159.895 95.7196 155.236 100.757 152.839 102.284Z" fill="#F8BA35"/>
<path d="M182.625 176.421C179.538 172.804 173.346 162.744 178.692 159.057C184.148 155.295 185.797 176.421 182.625 176.421Z" fill="#1A2332"/>
<path d="M175.155 184.626C162.543 162.986 164.636 147.058 167.156 140.17C167.298 139.783 166.896 139.412 166.606 139.669C153.601 151.187 163.652 172.115 174.644 185.139C174.942 185.492 175.392 185.034 175.155 184.626Z" fill="#1A2332"/>
<path d="M135.682 209.124C146.085 219.543 171.459 221.342 180.213 219.832C184.912 219.021 189.045 221.991 191.504 223.849C192.203 224.378 192.986 224.365 193.407 224.718C196.959 224.37 197.889 221.775 197.213 220.232C196.621 220.232 195.69 219.653 195.183 219.653C194.549 219.653 194.168 220.087 192.392 219.798C191.255 219.612 189.526 218.099 188.306 217.702C184.754 216.544 182.84 216.084 179.795 216.084C177.765 216.084 173.742 216.904 171.459 216.759C169.175 216.614 162.916 216.114 161.267 215.68C159.617 215.246 150.451 213.051 146.72 211.405C143.836 210.133 136.776 205.999 134.493 204.456C134.493 204.456 133.652 206.775 135.682 209.124Z" fill="#1A2332"/>
<path d="M42.4307 57.1544C43.3442 59.9326 44.2068 64.6788 48.2667 69.5986C50.1417 71.8708 63.9983 64.458 64.8863 59.6486C65.7744 54.8392 68.1849 51.3663 70.3416 50.6771C72.4984 49.9879 83.6627 49.1433 82.1403 36.6412C80.2373 21.0136 69.4536 16.962 66.0281 16.5279C62.6027 16.0938 54.1303 15.7701 51.9458 19.9664C49.5354 24.5968 50.0427 25.3546 44.5874 34.1813C39.1321 43.008 41.2889 53.6816 42.4307 57.1544Z" fill="#1A2332"/>
<path d="M53.4704 53.8438C53.4704 53.8438 55.5425 53.8438 54.3585 50.0816C53.1744 46.3194 51.9984 42.1461 52.3029 40.1781C52.6835 37.7182 55.245 35.9522 56.0064 34.7946C56.7679 33.637 57.74 31.2171 58.0364 30.2514C58.4699 28.8386 59.6497 29.0639 61.2607 29.5255C62.6563 29.9253 63.672 30.2217 65.0675 31.2346C65.8288 31.7871 66.0825 31.6408 66.9706 33.0878C67.681 34.2454 66.9186 35.5634 65.7768 36.3351L60.3215 38.5056C59.2482 39.0475 58.65 40.4042 58.9347 41.6231C59.0395 42.0715 59.2541 42.4869 59.439 42.9087C59.6513 43.3932 59.9728 44.0408 60.3215 44.4383C61.8428 46.1728 65.7768 45.3065 65.7768 45.3065C66.6226 45.0171 68.5932 44.2068 69.7097 43.2807C71.1052 42.1231 74.15 41.9784 76.4337 41.1102C78.7173 40.242 75.9262 36.7692 75.2919 35.4669C74.6575 34.1646 70.7467 26.9572 68.3141 25.9167C67.2992 25.4826 65.2693 24.4697 62.6051 24.4697C59.9409 24.4697 57.1498 24.4697 55.1199 26.2061C54.2121 26.9827 53.4966 28.5213 52.6086 30.6918C51.7205 32.8623 49.3602 36.1329 47.8378 37.5799C46.3154 39.0269 48.9032 46.7535 49.5375 50.0816C50.045 52.7441 52.3709 53.6991 53.4704 53.8438Z" fill="#F8BA35"/>
<ellipse rx="2.20276" ry="4.72166" transform="matrix(0.987615 0.156893 -0.121217 0.992626 154.4 91.9727)" fill="#1A2332"/>
</g>
</g>
</svg>
