<svg width="32" height="32" viewBox="0 0 32 32" fill="none" xmlns="http://www.w3.org/2000/svg">
<path d="M0 16C0 7.16344 7.16344 0 16 0V0C24.8366 0 32 7.16344 32 16V16C32 24.8366 24.8366 32 16 32V32C7.16344 32 0 24.8366 0 16V16Z" fill="#F3F3F3"/>
<rect width="32" height="32" rx="16" fill="#F3F3F3"/>
<g clip-path="url(#clip0_325_209)">
<rect width="17.8987" height="12.3586" transform="translate(7.19922 9.6001)" fill="#F3F3F3"/>
<path d="M24.6955 11.5338C24.4903 10.7727 23.8859 10.1732 23.1184 9.96976C21.7274 9.6001 16.1493 9.6001 16.1493 9.6001C16.1493 9.6001 10.5714 9.6001 9.18025 9.96976C8.41279 10.1732 7.80835 10.7727 7.60321 11.5338C7.23047 12.9134 7.23047 15.7919 7.23047 15.7919C7.23047 15.7919 7.23047 18.6704 7.60321 20.05C7.80835 20.8111 8.41279 21.3856 9.18025 21.5891C10.5714 21.9587 16.1493 21.9587 16.1493 21.9587C16.1493 21.9587 21.7273 21.9587 23.1184 21.5891C23.8859 21.3856 24.4903 20.8111 24.6955 20.05C25.0682 18.6704 25.0682 15.7919 25.0682 15.7919C25.0682 15.7919 25.0682 12.9134 24.6955 11.5338V11.5338ZM14.325 18.4053V13.1785L18.9871 15.792L14.325 18.4053V18.4053Z" fill="black"/>
</g>
<defs>
<clipPath id="clip0_325_209">
<rect width="17.8987" height="12.3586" fill="white" transform="translate(7.19922 9.6001)"/>
</clipPath>
</defs>
</svg>
