<svg width="32" height="32" viewBox="0 0 32 32" fill="none" xmlns="http://www.w3.org/2000/svg">
<path d="M0 16C0 7.16344 7.16344 0 16 0V0C24.8366 0 32 7.16344 32 16V16C32 24.8366 24.8366 32 16 32V32C7.16344 32 0 24.8366 0 16V16Z" fill="#F3F3F3"/>
<g clip-path="url(#clip0_321_104)">
<path d="M16.0027 12.7656C14.1855 12.7656 12.7198 14.2084 12.7198 15.9972C12.7198 17.7859 14.1855 19.2287 16.0027 19.2287C17.8198 19.2287 19.2855 17.7859 19.2855 15.9972C19.2855 14.2084 17.8198 12.7656 16.0027 12.7656ZM16.0027 18.0981C14.8284 18.0981 13.8684 17.1559 13.8684 15.9972C13.8684 14.8384 14.8255 13.8962 16.0027 13.8962C17.1798 13.8962 18.1369 14.8384 18.1369 15.9972C18.1369 17.1559 17.1769 18.0981 16.0027 18.0981V18.0981ZM20.1855 12.6334C20.1855 13.0525 19.8427 13.3872 19.4198 13.3872C18.9941 13.3872 18.6541 13.0497 18.6541 12.6334C18.6541 12.2172 18.9969 11.8797 19.4198 11.8797C19.8427 11.8797 20.1855 12.2172 20.1855 12.6334ZM22.3598 13.3984C22.3112 12.3887 22.0769 11.4944 21.3255 10.7575C20.5769 10.0206 19.6684 9.78999 18.6427 9.73937C17.5855 9.6803 14.4169 9.6803 13.3598 9.73937C12.3369 9.78718 11.4284 10.0178 10.6769 10.7547C9.92551 11.4916 9.69408 12.3859 9.64266 13.3956C9.58266 14.4362 9.58266 17.5553 9.64266 18.5959C9.69123 19.6056 9.92551 20.5 10.6769 21.2369C11.4284 21.9737 12.3341 22.2044 13.3598 22.255C14.4169 22.3141 17.5855 22.3141 18.6427 22.255C19.6684 22.2072 20.5769 21.9766 21.3255 21.2369C22.0741 20.5 22.3084 19.6056 22.3598 18.5959C22.4198 17.5553 22.4198 14.4391 22.3598 13.3984V13.3984ZM20.9941 19.7125C20.7712 20.2637 20.3398 20.6884 19.7769 20.9106C18.9341 21.2397 16.9341 21.1637 16.0027 21.1637C15.0712 21.1637 13.0684 21.2369 12.2284 20.9106C11.6684 20.6912 11.2369 20.2666 11.0112 19.7125C10.6769 18.8828 10.7541 16.9141 10.7541 15.9972C10.7541 15.0803 10.6798 13.1087 11.0112 12.2819C11.2341 11.7306 11.6655 11.3059 12.2284 11.0837C13.0712 10.7547 15.0712 10.8306 16.0027 10.8306C16.9341 10.8306 18.9369 10.7575 19.7769 11.0837C20.3369 11.3031 20.7684 11.7278 20.9941 12.2819C21.3284 13.1116 21.2512 15.0803 21.2512 15.9972C21.2512 16.9141 21.3284 18.8856 20.9941 19.7125Z" fill="black"/>
</g>
<defs>
<clipPath id="clip0_321_104">
<rect width="12.8" height="14.4" fill="white" transform="translate(9.59961 8.80005)"/>
</clipPath>
</defs>
</svg>
