<svg width="438" height="104" viewBox="0 0 438 104" fill="none" xmlns="http://www.w3.org/2000/svg">
<g filter="url(#filter0_d_413_271)">
<path d="M35 30C35 13.4315 48.4315 0 65 0H404C420.569 0 434 13.4315 434 30V66C434 82.5685 420.569 96 404 96H35V30Z" fill="#F8BA35"/>
<path d="M95.8553 59.844H82.5553L79.9333 66H74.8412L86.8113 39.4H91.6753L103.683 66H98.5153L95.8553 59.844ZM94.2212 55.968L89.2053 44.34L84.2273 55.968H94.2212ZM119.007 66.38C116.322 66.38 113.89 65.7973 111.711 64.632C109.558 63.4413 107.86 61.8073 106.619 59.73C105.403 57.6527 104.795 55.3093 104.795 52.7C104.795 50.0907 105.416 47.7473 106.657 45.67C107.898 43.5927 109.596 41.9713 111.749 40.806C113.928 39.6153 116.36 39.02 119.045 39.02C121.224 39.02 123.212 39.4 125.011 40.16C126.81 40.92 128.33 42.022 129.571 43.466L126.379 46.468C124.454 44.3907 122.085 43.352 119.273 43.352C117.449 43.352 115.815 43.7573 114.371 44.568C112.927 45.3533 111.8 46.4553 110.989 47.874C110.178 49.2927 109.773 50.9013 109.773 52.7C109.773 54.4987 110.178 56.1073 110.989 57.526C111.8 58.9447 112.927 60.0593 114.371 60.87C115.815 61.6553 117.449 62.048 119.273 62.048C122.085 62.048 124.454 60.9967 126.379 58.894L129.571 61.934C128.33 63.378 126.797 64.48 124.973 65.24C123.174 66 121.186 66.38 119.007 66.38ZM139.404 43.58H130.588V39.4H153.16V43.58H144.344V66H139.404V43.58ZM156.867 39.4H161.807V66H156.867V39.4ZM193.136 39.4L181.546 66H176.682L165.054 39.4H170.412L179.266 59.92L188.196 39.4H193.136ZM215.893 61.858V66H195.943V39.4H215.361V43.542H200.883V50.458H213.727V54.524H200.883V61.858H215.893ZM240.148 66.38C238.096 66.38 236.107 66.0887 234.182 65.506C232.282 64.9233 230.775 64.1507 229.66 63.188L231.37 59.35C232.459 60.2113 233.789 60.9207 235.36 61.478C236.956 62.01 238.552 62.276 240.148 62.276C242.124 62.276 243.593 61.9593 244.556 61.326C245.544 60.6927 246.038 59.8567 246.038 58.818C246.038 58.058 245.759 57.4373 245.202 56.956C244.67 56.4493 243.986 56.0567 243.15 55.778C242.314 55.4993 241.174 55.1827 239.73 54.828C237.703 54.3467 236.057 53.8653 234.79 53.384C233.549 52.9027 232.472 52.1553 231.56 51.142C230.673 50.1033 230.23 48.71 230.23 46.962C230.23 45.4927 230.623 44.1627 231.408 42.972C232.219 41.756 233.422 40.7933 235.018 40.084C236.639 39.3747 238.615 39.02 240.946 39.02C242.567 39.02 244.163 39.2227 245.734 39.628C247.305 40.0333 248.66 40.616 249.8 41.376L248.242 45.214C247.077 44.53 245.861 44.0107 244.594 43.656C243.327 43.3013 242.099 43.124 240.908 43.124C238.957 43.124 237.501 43.4533 236.538 44.112C235.601 44.7707 235.132 45.6447 235.132 46.734C235.132 47.494 235.398 48.1147 235.93 48.596C236.487 49.0773 237.184 49.4573 238.02 49.736C238.856 50.0147 239.996 50.3313 241.44 50.686C243.416 51.142 245.037 51.6233 246.304 52.13C247.571 52.6113 248.647 53.3587 249.534 54.372C250.446 55.3853 250.902 56.7533 250.902 58.476C250.902 59.9453 250.497 61.2753 249.686 62.466C248.901 63.6567 247.697 64.6067 246.076 65.316C244.455 66.0253 242.479 66.38 240.148 66.38ZM268.227 66.38C265.516 66.38 263.071 65.7973 260.893 64.632C258.714 63.4413 257.004 61.8073 255.763 59.73C254.521 57.6273 253.901 55.284 253.901 52.7C253.901 50.116 254.521 47.7853 255.763 45.708C257.004 43.6053 258.714 41.9713 260.893 40.806C263.071 39.6153 265.516 39.02 268.227 39.02C270.937 39.02 273.382 39.6153 275.561 40.806C277.739 41.9713 279.449 43.5927 280.691 45.67C281.932 47.7473 282.553 50.0907 282.553 52.7C282.553 55.3093 281.932 57.6527 280.691 59.73C279.449 61.8073 277.739 63.4413 275.561 64.632C273.382 65.7973 270.937 66.38 268.227 66.38ZM268.227 62.048C270 62.048 271.596 61.6553 273.015 60.87C274.433 60.0593 275.548 58.9447 276.359 57.526C277.169 56.082 277.575 54.4733 277.575 52.7C277.575 50.9267 277.169 49.3307 276.359 47.912C275.548 46.468 274.433 45.3533 273.015 44.568C271.596 43.7573 270 43.352 268.227 43.352C266.453 43.352 264.857 43.7573 263.439 44.568C262.02 45.3533 260.905 46.468 260.095 47.912C259.284 49.3307 258.879 50.9267 258.879 52.7C258.879 54.4733 259.284 56.082 260.095 57.526C260.905 58.9447 262.02 60.0593 263.439 60.87C264.857 61.6553 266.453 62.048 268.227 62.048ZM300.215 66.38C297.504 66.38 295.059 65.7973 292.881 64.632C290.702 63.4413 288.992 61.8073 287.751 59.73C286.509 57.6273 285.889 55.284 285.889 52.7C285.889 50.116 286.509 47.7853 287.751 45.708C288.992 43.6053 290.702 41.9713 292.881 40.806C295.059 39.6153 297.504 39.02 300.215 39.02C302.925 39.02 305.37 39.6153 307.549 40.806C309.727 41.9713 311.437 43.5927 312.679 45.67C313.92 47.7473 314.541 50.0907 314.541 52.7C314.541 55.3093 313.92 57.6527 312.679 59.73C311.437 61.8073 309.727 63.4413 307.549 64.632C305.37 65.7973 302.925 66.38 300.215 66.38ZM300.215 62.048C301.988 62.048 303.584 61.6553 305.003 60.87C306.421 60.0593 307.536 58.9447 308.347 57.526C309.157 56.082 309.563 54.4733 309.563 52.7C309.563 50.9267 309.157 49.3307 308.347 47.912C307.536 46.468 306.421 45.3533 305.003 44.568C303.584 43.7573 301.988 43.352 300.215 43.352C298.441 43.352 296.845 43.7573 295.427 44.568C294.008 45.3533 292.893 46.468 292.083 47.912C291.272 49.3307 290.867 50.9267 290.867 52.7C290.867 54.4733 291.272 56.082 292.083 57.526C292.893 58.9447 294.008 60.0593 295.427 60.87C296.845 61.6553 298.441 62.048 300.215 62.048ZM343.413 39.4V66H339.347L324.679 47.988V66H319.777V39.4H323.843L338.511 57.412V39.4H343.413Z" fill="black"/>
<path d="M387 44.1997L367 64.1997" stroke="black" stroke-width="5" stroke-linecap="square"/>
<path d="M371.133 43.3999H387.799V60.0666" stroke="black" stroke-width="5" stroke-linecap="square"/>
</g>
<defs>
<filter id="filter0_d_413_271" x="31" y="0" width="407" height="104" filterUnits="userSpaceOnUse" color-interpolation-filters="sRGB">
<feFlood flood-opacity="0" result="BackgroundImageFix"/>
<feColorMatrix in="SourceAlpha" type="matrix" values="0 0 0 0 0 0 0 0 0 0 0 0 0 0 0 0 0 0 127 0" result="hardAlpha"/>
<feOffset dy="4"/>
<feGaussianBlur stdDeviation="2"/>
<feComposite in2="hardAlpha" operator="out"/>
<feColorMatrix type="matrix" values="0 0 0 0 0 0 0 0 0 0 0 0 0 0 0 0 0 0 0.25 0"/>
<feBlend mode="normal" in2="BackgroundImageFix" result="effect1_dropShadow_413_271"/>
<feBlend mode="normal" in="SourceGraphic" in2="effect1_dropShadow_413_271" result="shape"/>
</filter>
</defs>
</svg>
