<svg width="32" height="32" viewBox="0 0 32 32" fill="none" xmlns="http://www.w3.org/2000/svg">
<path d="M0 16C0 7.16344 7.16344 0 16 0C24.8366 0 32 7.16344 32 16C32 24.8366 24.8366 32 16 32C7.16344 32 0 24.8366 0 16Z" fill="#F3F3F3"/>
<g clip-path="url(#clip0_413_300)">
<rect width="14.4" height="16" transform="translate(8.80078 8)" fill="#F3F3F3"/>
<path d="M14.8508 15.5916L14.8507 15.5916V15.6C14.8507 15.8419 14.6752 15.988 14.5114 15.988C14.3528 15.988 14.1721 15.8386 14.1721 15.6C14.1721 15.3581 14.3476 15.212 14.5114 15.212C14.6826 15.212 14.8546 15.3642 14.8508 15.5916ZM19.1502 21.612H10.4876C9.82219 21.612 9.30078 21.0882 9.30078 20.464V9.648C9.30078 9.02376 9.82219 8.5 10.4876 8.5H21.5139C22.1794 8.5 22.7008 9.02376 22.7008 9.648V22.9122C22.2997 22.5684 22.0614 22.364 21.8253 22.1571C21.4091 21.7923 20.9998 21.4196 19.718 20.2611L18.4015 19.0712L18.9031 20.7733L19.1502 21.612ZM20.8556 17.232L21.2838 17.4902L21.3556 17.3711V17.232C21.3556 15.8704 21.0432 14.6465 20.735 13.7684C20.5804 13.3279 20.4255 12.9705 20.3083 12.7216C20.2496 12.597 20.2003 12.4993 20.165 12.4315C20.1473 12.3977 20.1331 12.3713 20.1231 12.3528L20.111 12.331L20.1075 12.3246L20.1063 12.3225L20.1059 12.3218L20.1057 12.3215C20.1057 12.3213 20.1056 12.3212 19.6707 12.568L20.1056 12.3212L20.0524 12.2275L19.9653 12.164C19.3094 11.6857 18.6673 11.4518 18.1857 11.3375C17.9449 11.2804 17.7432 11.2529 17.5983 11.2398C17.5257 11.2332 17.4672 11.2302 17.4248 11.2289C17.4036 11.2282 17.3864 11.228 17.3735 11.2279L17.3574 11.228L17.3518 11.228L17.3496 11.2281L17.3487 11.2281L17.3483 11.2281C17.3481 11.2281 17.3479 11.2281 17.3534 11.4859L17.3533 11.486L17.3479 11.2281L17.1316 11.2327L16.9868 11.3935L16.8716 11.5215L16.8003 11.6008C16.2934 11.5478 15.7849 11.5458 15.2837 11.5919L15.2037 11.4986L15.1214 11.4026L14.976 11.2329L14.7525 11.2281L14.7457 11.5449L14.7457 11.5449C14.7524 11.2281 14.7522 11.2281 14.7521 11.2281L14.7516 11.2281L14.7507 11.2281L14.7485 11.228L14.7429 11.228L14.7268 11.2279C14.7139 11.228 14.6967 11.2282 14.6755 11.2289C14.6331 11.2302 14.5746 11.2332 14.502 11.2398C14.3571 11.2529 14.1555 11.2804 13.9146 11.3375C13.433 11.4518 12.7909 11.6857 12.135 12.164L12.0479 12.2275L11.9947 12.3212L12.3216 12.5067L12.3216 12.5067C11.9947 12.3212 11.9946 12.3214 11.9946 12.3215L11.9944 12.3218L11.994 12.3225L11.9928 12.3246L11.9893 12.331L11.9773 12.3528C11.9672 12.3713 11.953 12.3977 11.9353 12.4315C11.9 12.4993 11.8507 12.597 11.792 12.7216C11.6749 12.9705 11.5199 13.3279 11.3653 13.7684C11.0572 14.6465 10.7447 15.8704 10.7447 17.232V17.3697L10.8151 17.4879L11.2447 17.232C10.8151 17.4879 10.8153 17.4882 10.8154 17.4884L10.8157 17.4889L10.8164 17.4901L10.818 17.4926L10.8219 17.499L10.8331 17.5167C10.8421 17.5306 10.8541 17.5486 10.8693 17.5702C10.8998 17.6133 10.943 17.6708 11.0002 17.738C11.1143 17.8722 11.2847 18.0462 11.5196 18.2205C11.9934 18.5722 12.7179 18.9163 13.739 18.9478L13.9803 18.9552L14.1362 18.7709L13.7544 18.448L14.1362 18.7709L14.1362 18.7708L14.1362 18.7708L14.1364 18.7706L14.1371 18.7697L14.1398 18.7666L14.1501 18.7544L14.1884 18.7089C14.2211 18.6701 14.2672 18.6151 14.3211 18.5506C14.4272 18.4238 14.5642 18.2587 14.6884 18.1059C15.5495 18.2873 16.4855 18.3094 17.4108 18.1206C17.5361 18.2747 17.6724 18.4373 17.777 18.561C17.8301 18.6237 17.8754 18.6769 17.9075 18.7144L17.9451 18.7583L17.9552 18.77L17.9578 18.7731L17.9585 18.7739L17.9587 18.7742L17.9588 18.7742L17.9588 18.7743L18.3377 18.448L17.9588 18.7743L18.1145 18.9551L18.3531 18.9478C19.374 18.9163 20.1002 18.5723 20.5756 18.2212C20.8113 18.0472 20.9827 17.8735 21.0975 17.7396C21.155 17.6725 21.1986 17.6151 21.2292 17.5721C21.2446 17.5506 21.2567 17.5326 21.2658 17.5188L21.2771 17.5012L21.281 17.4948L21.2826 17.4923L21.2832 17.4912L21.2835 17.4907C21.2837 17.4904 21.2838 17.4902 20.8556 17.232ZM12.3224 12.5072L12.3231 12.5076C12.3231 12.5076 12.3231 12.5076 12.3231 12.5076C12.3229 12.5075 12.3226 12.5073 12.3224 12.5072L12.3224 12.5072ZM17.8542 15.6C17.8542 15.8419 17.6786 15.988 17.5148 15.988C17.3562 15.988 17.1755 15.8386 17.1755 15.6C17.1755 15.3581 17.3511 15.212 17.5148 15.212C17.6786 15.212 17.8542 15.3581 17.8542 15.6Z" fill="black" stroke="black"/>
</g>
<defs>
<clipPath id="clip0_413_300">
<rect width="14.4" height="16" fill="white" transform="translate(8.80078 8)"/>
</clipPath>
</defs>
</svg>
