<svg width="32" height="32" viewBox="0 0 32 32" fill="none" xmlns="http://www.w3.org/2000/svg">
<path d="M0 16C0 7.16344 7.16344 0 16 0V0C24.8366 0 32 7.16344 32 16V16C32 24.8366 24.8366 32 16 32V32C7.16344 32 0 24.8366 0 16V16Z" fill="#F3F3F3"/>
<g clip-path="url(#clip0_371_807)">
<path d="M19.5742 17.35L20.0008 14.5992H17.3335V12.8141C17.3335 12.0615 17.7061 11.3279 18.9007 11.3279H20.1133V8.98589C20.1133 8.98589 19.0129 8.80005 17.9608 8.80005C15.7642 8.80005 14.3284 10.1176 14.3284 12.5027V14.5992H11.8867V17.35H14.3284V24H17.3335V17.35H19.5742Z" fill="black"/>
</g>
<defs>
<clipPath id="clip0_371_807">
<rect width="9.6" height="15.2" fill="white" transform="translate(11.1992 8.80005)"/>
</clipPath>
</defs>
</svg>
