<svg width="32" height="32" viewBox="0 0 32 32" fill="none" xmlns="http://www.w3.org/2000/svg">
<path d="M0 16C0 7.16344 7.16344 0 16 0C24.8366 0 32 7.16344 32 16C32 24.8366 24.8366 32 16 32C7.16344 32 0 24.8366 0 16Z" fill="#F3F3F3"/>
<g clip-path="url(#clip0_371_766)">
<path d="M16.0027 12.7654C14.1855 12.7654 12.7198 14.2082 12.7198 15.9969C12.7198 17.7857 14.1855 19.2285 16.0027 19.2285C17.8198 19.2285 19.2855 17.7857 19.2855 15.9969C19.2855 14.2082 17.8198 12.7654 16.0027 12.7654ZM16.0027 18.0979C14.8284 18.0979 13.8684 17.1557 13.8684 15.9969C13.8684 14.8382 14.8255 13.896 16.0027 13.896C17.1798 13.896 18.1369 14.8382 18.1369 15.9969C18.1369 17.1557 17.1769 18.0979 16.0027 18.0979ZM20.1855 12.6332C20.1855 13.0522 19.8427 13.3869 19.4198 13.3869C18.9941 13.3869 18.6541 13.0494 18.6541 12.6332C18.6541 12.2169 18.9969 11.8794 19.4198 11.8794C19.8427 11.8794 20.1855 12.2169 20.1855 12.6332ZM22.3598 13.3982C22.3112 12.3885 22.0769 11.4941 21.3255 10.7572C20.5769 10.0204 19.6684 9.78975 18.6427 9.73912C17.5855 9.68006 14.4169 9.68006 13.3598 9.73912C12.3369 9.78693 11.4284 10.0176 10.6769 10.7544C9.92551 11.4913 9.69408 12.3857 9.64266 13.3954C9.58266 14.436 9.58266 17.5551 9.64266 18.5957C9.69123 19.6054 9.92551 20.4997 10.6769 21.2366C11.4284 21.9735 12.3341 22.2041 13.3598 22.2547C14.4169 22.3138 17.5855 22.3138 18.6427 22.2547C19.6684 22.2069 20.5769 21.9763 21.3255 21.2366C22.0741 20.4997 22.3084 19.6054 22.3598 18.5957C22.4198 17.5551 22.4198 14.4388 22.3598 13.3982ZM20.9941 19.7122C20.7712 20.2635 20.3398 20.6882 19.7769 20.9104C18.9341 21.2394 16.9341 21.1635 16.0027 21.1635C15.0712 21.1635 13.0684 21.2366 12.2284 20.9104C11.6684 20.691 11.2369 20.2663 11.0112 19.7122C10.6769 18.8826 10.7541 16.9138 10.7541 15.9969C10.7541 15.0801 10.6798 13.1085 11.0112 12.2816C11.2341 11.7304 11.6655 11.3057 12.2284 11.0835C13.0712 10.7544 15.0712 10.8304 16.0027 10.8304C16.9341 10.8304 18.9369 10.7572 19.7769 11.0835C20.3369 11.3029 20.7684 11.7276 20.9941 12.2816C21.3284 13.1113 21.2512 15.0801 21.2512 15.9969C21.2512 16.9138 21.3284 18.8854 20.9941 19.7122Z" fill="black"/>
</g>
<defs>
<clipPath id="clip0_371_766">
<rect width="12.8" height="14.4" fill="white" transform="translate(9.59961 8.7998)"/>
</clipPath>
</defs>
</svg>
