<svg width="32" height="32" viewBox="0 0 32 32" fill="none" xmlns="http://www.w3.org/2000/svg">
<path d="M0 16C0 7.16344 7.16344 0 16 0V0C24.8366 0 32 7.16344 32 16V16C32 24.8366 24.8366 32 16 32V32C7.16344 32 0 24.8366 0 16V16Z" fill="#F3F3F3"/>
<g clip-path="url(#clip0_323_189)">
<path d="M21.7206 13.2146C21.7298 13.3381 21.7298 13.4617 21.7298 13.5852C21.7298 17.3528 18.7602 21.694 13.3328 21.694C11.6607 21.694 10.1074 21.2264 8.80078 20.4146C9.03835 20.4411 9.26676 20.4499 9.51347 20.4499C10.8931 20.4499 12.1632 19.9999 13.1774 19.2323C11.88 19.2058 10.7927 18.3852 10.418 17.2558C10.6008 17.2822 10.7835 17.2999 10.9754 17.2999C11.2404 17.2999 11.5054 17.2646 11.7521 17.2028C10.3998 16.9381 9.38553 15.7911 9.38553 14.4058V14.3705C9.77841 14.5823 10.2353 14.7146 10.7195 14.7322C9.9246 14.2205 9.40381 13.3469 9.40381 12.3587C9.40381 11.8293 9.54998 11.344 9.80583 10.9205C11.2586 12.6499 13.4424 13.7793 15.8911 13.9028C15.8454 13.6911 15.818 13.4705 15.818 13.2499C15.818 11.6793 17.1338 10.3999 18.7693 10.3999C19.619 10.3999 20.3866 10.744 20.9257 11.2999C21.5926 11.1764 22.2322 10.9381 22.7988 10.6117C22.5794 11.2734 22.1135 11.8293 21.5013 12.1822C22.0952 12.1205 22.6708 11.9617 23.2008 11.7411C22.7988 12.3058 22.2962 12.8087 21.7206 13.2146V13.2146Z" fill="black"/>
</g>
<defs>
<clipPath id="clip0_323_189">
<rect width="14.4" height="12" fill="white" transform="translate(8.80078 10.3999)"/>
</clipPath>
</defs>
</svg>
